<svg width="92" height="92" viewBox="0 0 92 92" fill="none" xmlns="http://www.w3.org/2000/svg">
<rect width="91.5618" height="91.5618" fill="#006699"/>
<path d="M35.2487 64.3345V39.601H27.0349V64.3345H35.2495H35.2487ZM31.1435 36.2246C34.0072 36.2246 35.79 34.3254 35.79 31.9519C35.7364 29.5243 34.0072 27.6781 31.198 27.6781C28.3868 27.6781 26.5508 29.5243 26.5508 31.9517C26.5508 34.3252 28.333 36.2244 31.0897 36.2244H31.1429L31.1435 36.2246ZM39.7951 64.3345H48.0082V50.5237C48.0082 49.7854 48.0618 49.0453 48.2787 48.518C48.8722 47.0404 50.2237 45.511 52.4932 45.511C55.4646 45.511 56.6539 47.7789 56.6539 51.1042V64.3345H64.8668V50.153C64.8668 42.5563 60.8152 39.0211 55.4114 39.0211C50.981 39.0211 49.0352 41.4996 47.9541 43.1877H48.0088V39.6019H39.7955C39.9027 41.9221 39.7949 64.3353 39.7949 64.3353L39.7951 64.3345Z" fill="white"/>
</svg>
