<svg width="92" height="92" viewBox="0 0 92 92" fill="none" xmlns="http://www.w3.org/2000/svg">
<rect width="91.5618" height="91.5618" fill="#34AADF"/>
<path d="M25.4728 44.1591C25.4728 44.1591 44.1008 36.3134 50.5613 33.5507C53.0379 32.4457 61.4366 28.9094 61.4366 28.9094C61.4366 28.9094 65.313 27.3624 64.9899 31.1195C64.8822 32.6667 64.0208 38.0813 63.1595 43.9381C61.8673 52.2261 60.4675 61.2874 60.4675 61.2874C60.4675 61.2874 60.2522 63.8291 58.4217 64.2711C56.5912 64.7131 53.5762 62.7241 53.0379 62.282C52.6071 61.9506 44.9622 56.9777 42.1626 54.5466C41.4088 53.8836 40.5475 52.5576 42.2702 51.0105C46.1466 47.3638 50.7766 42.8332 53.5762 39.96C54.8684 38.6339 56.1604 35.5398 50.7766 39.2969C43.1317 44.7117 35.5944 49.7949 35.5944 49.7949C35.5944 49.7949 33.8715 50.8999 30.6413 49.9054C27.4109 48.911 23.6422 47.5848 23.6422 47.5848C23.6422 47.5848 21.0582 45.9273 25.4728 44.1591Z" fill="white"/>
</svg>
