<svg width="92" height="92" viewBox="0 0 92 92" fill="none" xmlns="http://www.w3.org/2000/svg">
<rect width="91.56" height="91.56" fill="#2787F5"/>
<path fill-rule="evenodd" clip-rule="evenodd" d="M72.4956 32.5968C72.8825 31.3864 72.4956 30.497 70.6541 30.497H64.5646C63.0163 30.497 62.3025 31.2653 61.9153 32.1125C61.9153 32.1125 58.8186 39.1932 54.4317 43.7925C53.0125 45.1238 52.3673 45.5475 51.5931 45.5475C51.2061 45.5475 50.6458 45.1238 50.6458 43.9136V32.5968C50.6458 31.1443 50.1964 30.497 48.906 30.497H39.3369C38.3693 30.497 37.7874 31.1711 37.7874 31.81C37.7874 33.1869 39.9807 33.5044 40.2068 37.3776V45.7896C40.2068 47.6339 39.8517 47.9683 39.0776 47.9683C37.0132 47.9683 31.9917 40.856 29.0134 32.7178C28.4298 31.136 27.8443 30.497 26.288 30.497H20.1986C18.4588 30.497 18.1108 31.2653 18.1108 32.1125C18.1108 33.6255 20.1752 41.1298 27.7232 51.0546C32.7552 57.8325 39.8449 61.5067 46.2962 61.5067C50.167 61.5067 50.6459 60.6906 50.6459 59.285V54.1623C50.6459 52.5302 51.0126 52.2045 52.2383 52.2045C53.1415 52.2045 54.6898 52.6281 58.3026 55.896C62.4314 59.7691 63.1121 61.5067 65.4345 61.5067H71.524C73.2638 61.5067 74.1338 60.6906 73.6319 59.0802C73.0827 57.4752 71.1115 55.1465 68.4957 52.386C67.0764 50.8126 64.9475 49.1181 64.3023 48.2707C63.3991 47.1815 63.6572 46.6973 64.3023 45.7291C64.3023 45.7291 71.7214 35.9252 72.4956 32.5968Z" fill="white"/>
</svg>
