<svg width="92" height="92" viewBox="0 0 92 92" fill="none" xmlns="http://www.w3.org/2000/svg">
<rect width="91.5618" height="91.5618" fill="#1B1F23"/>
<path fill-rule="evenodd" clip-rule="evenodd" d="M45.7347 21C31.5163 21 20 32.4705 20 46.6323C20 57.9747 27.3666 67.5547 37.5961 70.951C38.8828 71.1753 39.3654 70.4063 39.3654 69.7335C39.3654 69.1247 39.3332 67.1062 39.3332 64.9595C32.8674 66.145 31.1946 63.3895 30.6799 61.9477C30.3904 61.2107 29.1358 58.9359 28.0421 58.3271C27.1414 57.8465 25.8546 56.661 28.0099 56.629C30.0365 56.5969 31.4841 58.4873 31.9666 59.2563C34.2828 63.1332 37.9821 62.0438 39.4619 61.3709C39.687 59.7048 40.3626 58.5834 41.1025 57.9426C35.3765 57.3018 29.3932 55.091 29.3932 45.2866C29.3932 42.4991 30.3904 40.1922 32.031 38.398C31.7736 37.7571 30.8729 35.1298 32.2883 31.6054C32.2883 31.6054 34.4436 30.9325 39.3654 34.2327C41.4241 33.656 43.6116 33.3676 45.799 33.3676C47.9865 33.3676 50.1739 33.656 52.2327 34.2327C57.1545 30.9005 59.3098 31.6054 59.3098 31.6054C60.7252 35.1298 59.8244 37.7571 59.5671 38.398C61.2077 40.1922 62.2049 42.4671 62.2049 45.2866C62.2049 55.1231 56.1894 57.3018 50.4635 57.9426C51.3963 58.7436 52.2005 60.2816 52.2005 62.6846C52.2005 66.1129 52.1684 68.8684 52.1684 69.7335C52.1684 70.4063 52.6509 71.2074 53.9376 70.951C64.1028 67.5547 71.4694 57.9426 71.4694 46.6323C71.4694 32.4705 59.9531 21 45.7347 21Z" fill="white"/>
</svg>
